<mxfile host="app.diagrams.net" modified="2024-05-20T13:06:53.538Z" agent="Mozilla/5.0 (Macintosh; Intel Mac OS X 10_15_7) AppleWebKit/537.36 (KHTML, like Gecko) Chrome/124.0.0.0 Safari/537.36" etag="9lcwKlPlaHb-1L3NiBOX" version="24.4.4" type="github">
  <diagram name="ページ1" id="grMbRl65DCC51e4uwdGM">
    <mxGraphModel dx="2120" dy="1098" grid="1" gridSize="10" guides="1" tooltips="1" connect="1" arrows="1" fold="1" page="1" pageScale="1" pageWidth="827" pageHeight="1169" math="0" shadow="0">
      <root>
        <mxCell id="0" />
        <mxCell id="1" parent="0" />
        <mxCell id="YeJFbSTwDDyOF9CnA5n1-1" value="EC2 instance contents" style="points=[[0,0],[0.25,0],[0.5,0],[0.75,0],[1,0],[1,0.25],[1,0.5],[1,0.75],[1,1],[0.75,1],[0.5,1],[0.25,1],[0,1],[0,0.75],[0,0.5],[0,0.25]];outlineConnect=0;gradientColor=none;html=1;whiteSpace=wrap;fontSize=12;fontStyle=0;container=1;pointerEvents=0;collapsible=0;recursiveResize=0;shape=mxgraph.aws4.group;grIcon=mxgraph.aws4.group_ec2_instance_contents;strokeColor=#D86613;fillColor=none;verticalAlign=top;align=left;spacingLeft=30;fontColor=#D86613;dashed=0;" parent="1" vertex="1">
          <mxGeometry x="390" y="610" width="320" height="400" as="geometry" />
        </mxCell>
        <mxCell id="8HqUlB-A6iutkIkSqe2s-6" value="Public subnet" style="sketch=0;outlineConnect=0;gradientColor=none;html=1;whiteSpace=wrap;fontSize=12;fontStyle=0;shape=mxgraph.aws4.group;grIcon=mxgraph.aws4.group_subnet;strokeColor=#97D077;fillColor=none;verticalAlign=top;align=left;spacingLeft=30;fontColor=#879196;dashed=0;" vertex="1" parent="YeJFbSTwDDyOF9CnA5n1-1">
          <mxGeometry x="90" y="40" width="140" height="130" as="geometry" />
        </mxCell>
        <mxCell id="8HqUlB-A6iutkIkSqe2s-3" value="" style="shape=image;verticalLabelPosition=bottom;labelBackgroundColor=default;verticalAlign=top;aspect=fixed;imageAspect=0;image=data:image/svg+xml,PHN2ZyB4bWxucz0iaHR0cDovL3d3dy53My5vcmcvMjAwMC9zdmciIHdpZHRoPSIyNTYiIHZpZXdCb3g9IjAgMCAyNTYgMjY0IiBwcmVzZXJ2ZUFzcGVjdFJhdGlvPSJ4TWlkWU1pZCIgaGVpZ2h0PSIyNjQiPjxwYXRoIGZpbGw9IiNmZjJkMjAiIGQ9Im0yNTUuODU1NjQxIDU5LjYxOTcxN2MuMDk0OTI0LjM1MTM0MjYuMTQ0MzU5LjcxMzU5NzkuMTQ0MzU5IDEuMDc3NTM2NnY1Ni41NjgwOTE0YzAgMS40Nzc4NjEtLjc5MDU5MSAyLjg0MjgwNC0yLjA3MjU4MiAzLjU3ODA0bC00Ny40Nzg2MzIgMjcuMzM1NDAxdjU0LjE4MTAxMmMwIDEuNDc0NTI0LS43ODM2NjMgMi44MzU2MjMtMi4wNjIyNzEgMy41NzgwNGwtOTkuMTA3NTg1IDU3LjA1MjcyNWMtLjIyNjg1LjEyODg5Mi0uNDc0MzIyLjIxMTM4My0uNzIxNzk1LjI5OTAzLS4wOTI4MDIuMDMwOTM0LS4xODA0NDguMDg3NjQ2LS4yNzg0MDYuMTEzNDI0LS42OTI4LjE4MjQ0My0xLjQyMTAyOC4xODI0NDMtMi4xMTM4MjggMC0uMTEzNDI1LS4wMzA5MzQtLjIxNjUzOC0uMDkyODAyLS4zMjQ4MDgtLjEzNDA0Ny0uMjI2ODQ5LS4wODI0OTEtLjQ2NDAxMS0uMTU0NjctLjY4MDU0OS0uMjc4NDA3bC05OS4wODY5NjE3My01Ny4wNTI3MjVjLTEuMjgxMjEwNDctLjczNjAxOS0yLjA3MjU4MjI3LTIuMTAwNDY2LTIuMDcyNTgyMjctMy41NzgwNHYtMTY5LjcwNDI3MzJjMC0uMzcxMjA4Ny4wNTE1NTY3Ny0uNzMyMTA2MS4xNDQzNTg5Ni0xLjA4MjY5MjIuMDMwOTM0MDctLjExODU4MDYuMTAzMTEzNTUtLjIyNjg0OTguMTQ0MzU4OTctLjM0NTQzMDQuMDc3MzM1MTYtLjIxNjUzODQuMTQ5NTE0NjQtLjQzODIzMjUuMjYyOTM5NTQtLjYzOTMwNC4wNzczMzUxNi0uMTM0MDQ3Ni4xOTA3NjAwNi0uMjQyMzE2OC4yODM1NjIyNS0uMzY2MDUzMS4xMTg1ODA1OC0uMTY0OTgxNi4yMjY4NDk4LS4zMzUxMTkuMzY2MDUzMDktLjQ3OTQ3NzkuMTE4NTgwNTgtLjExODU4MDYuMjczMjUwODktLjIwNjIyNzEuNDA3Mjk4NS0uMzA5MzQwNy4xNDk1MTQ2NC0uMTIzNzM2Mi4yODM1NjIyNS0uMjU3NzgzOC40NTM2OTk2LS4zNTU3NDE3aC4wMDUxNTU2OGw0OS41NDYwNTg3MS0yOC41MjYzNjI0NGMxLjI3NjcwNS0uNzM0NjU4MTMgMi44NDc4MzY4LS43MzQ2NTgxMyA0LjEyNDU0MTggMGw0OS41NDYwNTg5IDI4LjUyNjM2MjQ0aC4wMTAzMTFjLjE2NDk4Mi4xMDMxMTM1LjMwNDE4NS4yMzIwMDU1LjQ1MzcuMzUwNTg2LjEzNDA0Ny4xMDMxMTM2LjI4MzU2Mi4xOTU5MTU4LjQwMjE0My4zMDkzNDA3LjE0NDM1OS4xNDk1MTQ2LjI0NzQ3Mi4zMTk2NTIuMzcxMjA4LjQ4NDYzMzYuMDg3NjQ3LjEyMzczNjMuMjA2MjI4LjIzMjAwNTUuMjc4NDA3LjM2NjA1MzEuMTE4NTgxLjIwNjIyNzEuMTg1NjA0LjQyMjc2NTYuMjY4MDk1LjYzOTMwNC4wNDEyNDYuMTE4NTgwNi4xMTM0MjUuMjI2ODQ5OC4xNDQzNTkuMzUwNTg2MS4wOTQ5MjUuMzUxMzQyNS4xNDM0NTYuNzEzNTk3OC4xNDQzNTkgMS4wNzc1MzY1djEwNS45OTU1NjkybDQxLjI4NjY2NC0yMy43NzI4Mjh2LTU0LjE4NjE2ODFjMC0uMzYwODk3NC4wNTE1NTctLjcyNjk1MDUuMTQ0MzU5LTEuMDcyMzgwOS4wMzYwOS0uMTIzNzM2Mi4xMDMxMTMtLjIzMjAwNTQuMTQ0MzU5LS4zNTA1ODYuMDgyNDkxLS4yMTY1Mzg1LjE1NDY3LS40MzgyMzI2LjI2ODA5NS0uNjM5MzA0LjA3NzMzNS0uMTM0MDQ3Ni4xOTA3Ni0uMjQyMzE2OC4yNzg0MDctLjM2NjA1MzEuMTIzNzM2LS4xNjQ5ODE3LjIyNjg0OS0uMzM1MTE5LjM3MTIwOC0uNDc5NDc4LjExODU4MS0uMTE4NTgwNi4yNjgwOTYtLjIwNjIyNzEuNDAyMTQzLS4zMDkzNDA2LjE1NDY3LS4xMjM3MzYzLjI4ODcxOC0uMjU3NzgzOS40NTM3LS4zNTU3NDE3aC4wMDUxNTVsNDkuNTUxMjE1LTI4LjUyNjM2MjVjMS4yNzY0MjItLjczNTcxNjYgMi44NDgxMi0uNzM1NzE2NiA0LjEyNDU0MiAwbDQ5LjU0NjA1OCAyOC41MjYzNjI1Yy4xNzUyOTMuMTAzMTEzNS4zMDkzNDEuMjMyMDA1NC40NjQwMTEuMzUwNTg2LjEyODg5Mi4xMDMxMTM2LjI3ODQwNy4xOTU5MTU3LjM5Njk4OC4zMDkzNDA2LjE0NDM1OC4xNDk1MTQ3LjI0NzQ3Mi4zMTk2NTIuMzcxMjA4LjQ4NDYzMzcuMDkyODAyLjEyMzczNjMuMjA2MjI3LjIzMjAwNTUuMjc4NDA3LjM2NjA1MzEuMTE4NTguMjAxMDcxNC4xODU2MDQuNDIyNzY1NS4yNjgwOTUuNjM5MzA0LjA0NjQwMS4xMTg1ODA2LjExMzQyNS4yMjY4NDk4LjE0NDM1OS4zNTA1ODZ6bS04LjExNTAzNiA1NS4yNTg1NDl2LTQ3LjA0MDM5OTRsLTE3LjMzODU0MyA5Ljk4MTM5MTMtMjMuOTUzMjc2IDEzLjc5MTQzNjd2NDcuMDQwMzk5NGw0MS4yOTY5NzUtMjMuNzcyODI4em0tNDkuNTQ2MDU5IDg1LjA5NDQ1NHYtNDcuMDcxMzM0bC0yMy41NjE0NDUgMTMuNDU2MzE4LTY3LjI4MTU4OSAzOC4zOTk0ODR2NDcuNTE0NzIyem0tMTg5LjkzNTE1MDk5LTE2MC4xNzY1ODIxdjE2MC4xNzY1ODIxbDkwLjgzMjcyMjQ5IDUyLjI5NDAzNXYtNDcuNTA0NDExbC00Ny40NTI4NTM4LTI2Ljg1NTkyMy0uMDE1NDY3LS4wMTAzMTEtLjAyMDYyMjctLjAxMDMxMmMtLjE1OTgyNi0uMDkyODAyLS4yOTM4NzM2LS4yMjY4NDktLjQ0MzM4ODMtLjM0MDI3NC0uMTI4ODkxOS0uMTAzMTE0LS4yNzg0MDY2LS4xODU2MDUtLjM5MTgzMTUtLjI5OTAzbC0uMDEwMzExMy0uMDE1NDY3Yy0uMTM0MDQ3Ni0uMTI4ODkyLS4yMjY4NDk4LS4yODg3MTgtLjM0MDI3NDctLjQzMzA3Ny0uMTAzMTEzNi0uMTM5MjAzLS4yMjY4NDk4LS4yNTc3ODMtLjMwOTM0MDYtLjQwMjE0MmwtLjAwNTE1NTctLjAxNTQ2N2MtLjA5MjgwMjItLjE1NDY3MS0uMTQ5NTE0Ny0uMzQwMjc1LS4yMTY1Mzg1LS41MTU1NjgtLjA2NzAyMzgtLjE1NDY3LS4xNTQ2NzAzLS4yOTkwMjktLjE5NTkxNTctLjQ2NDAxMXYtLjAwNTE1NmMtLjA1MTU1NjgtLjE5NTkxNi0uMDYxODY4MS0uNDAyMTQzLS4wODI0OTA4LS42MDMyMTQtLjAyMDYyMjgtLjE1NDY3LS4wNjE4NjgyLS4zMDkzNDEtLjA2MTg2ODItLjQ2NDAxMXYtLjAxMDMxMS0xMTAuNzQ5MTA0MmwtMjMuOTQ4MTIxLTEzLjc5NjU5MjQtMTcuMzM4NTQyNjktOS45NzEwNzk5em00NS40MjE1MTY4OS0zMC45MDMxMjk2OS00MS4yODE1MDggMjMuNzYyNTE2NTkgNDEuMjcxMTk2NyAyMy43NjI1MTY2IDQxLjI3NjM1MjMtMjMuNzY3NjcyMi00MS4yNzYzNTIzLTIzLjc1NzM2MDk5em0yMS40NjgyNDAyIDE0OC4yOTc5MDE3OSAyMy45NDgxMjEtMTMuNzg2Mjgxdi0xMDMuNjA4NDkxMWwtMTcuMzM4NTQyNyA5Ljk4MTM5MTItMjMuOTUzMjc2NyAxMy43OTE0MzY3djEwMy42MDg0OTEyem0xMjcuMTc1MDkxOS0xMjAuMjU2MTczLTQxLjI3NjM1MyAyMy43NjI1MTY2IDQxLjI3NjM1MyAyMy43NjI1MTY2IDQxLjI3MTE5Ni0yMy43Njc2NzIzem0tNC4xMjk2OTggNTQuNjc1OTU3Ni0yMy45NTMyNzYtMTMuNzkxNDM2Ny0xNy4zMzg1NDMtOS45ODEzOTEzdjQ3LjA0MDM5OTRsMjMuOTQ4MTIxIDEzLjc4NjI4MSAxNy4zNDM2OTggOS45ODY1NDd6bS05NC45Nzc4ODcgMTA2LjAwNTg4MDQgNjAuNTQzMTE5LTM0LjU2MzY2IDMwLjI2MzgyNS0xNy4yNzE1MTktNDEuMjQ1NDE4LTIzLjc0NzA1LTQ3LjQ4ODk0MyAyNy4zNDA1NTctNDMuMjgxOTExMyAyNC45MTczODh6Ii8+PC9zdmc+;" vertex="1" parent="YeJFbSTwDDyOF9CnA5n1-1">
          <mxGeometry x="137.21000000000004" y="90" width="45.57" height="47" as="geometry" />
        </mxCell>
        <mxCell id="8HqUlB-A6iutkIkSqe2s-8" value="Private subnet" style="sketch=0;outlineConnect=0;gradientColor=none;html=1;whiteSpace=wrap;fontSize=12;fontStyle=0;shape=mxgraph.aws4.group;grIcon=mxgraph.aws4.group_subnet;strokeColor=#879196;fillColor=none;verticalAlign=top;align=left;spacingLeft=30;fontColor=#879196;dashed=0;" vertex="1" parent="YeJFbSTwDDyOF9CnA5n1-1">
          <mxGeometry x="85" y="230" width="155" height="130" as="geometry" />
        </mxCell>
        <mxCell id="8HqUlB-A6iutkIkSqe2s-9" value="" style="shape=image;verticalLabelPosition=bottom;labelBackgroundColor=default;verticalAlign=top;aspect=fixed;imageAspect=0;image=data:image/svg+xml,PHN2ZyB4bWxucz0iaHR0cDovL3d3dy53My5vcmcvMjAwMC9zdmciIHZpZXdCb3g9IjAgMCAxMjIuODggODMuNjciIGRhdGEtbmFtZT0iTGF5ZXIgMSIgaWQ9IkxheWVyXzEiPjxkZWZzPjxzdHlsZT4uY2xzLTEsLmNscy00e2ZpbGw6IzAwNzU4Zjt9LmNscy0yLC5jbHMtM3tmaWxsOiNmMjkxMTE7fS5jbHMtMywuY2xzLTR7ZmlsbC1ydWxlOmV2ZW5vZGQ7fTwvc3R5bGU+PC9kZWZzPjx0aXRsZT5teXNxbDwvdGl0bGU+PHBhdGggZD0iTTI5LjU0LDc2LjIzSDI0LjhxLS4yNC0xMi0xLjM4LTIyLjY0aDBMMTYuMTYsNzYuMjNIMTIuNTVMNS4zNyw1My41OWgwcS0uNzksMTAuMTktMSwyMi42NEgwUS40Miw2MS4wOCwyLjEsNDcuODJIOGw2Ljg0LDIwLjg3aDBsNi44OC0yMC44N2g1LjYycTEuODQsMTUuNTIsMi4xOCwyOC40MVptMCwwWiIgY2xhc3M9ImNscy0xIi8+PHBhdGggZD0iTTUwLjExLDU1LjI3UTQ3LjIyLDcxLDQyLjQ3LDc4LjE3cS0zLjY5LDUuNTEtOC4xLDUuNWE3Ljg5LDcuODksMCwwLDEtMi44OS0uN1Y4MC40NGExNC4wNSwxNC4wNSwwLDAsMCwyLC4xMiw0Ljc0LDQuNzQsMCwwLDAsMy4zMS0xLjE0LDQuMTMsNC4xMywwLDAsMCwxLjUxLTMuMTEsMjAuNzcsMjAuNzcsMCwwLDAtMS4xNy00Ljg0bC01LjItMTYuMmg0LjY1bDMuNzQsMTIuMTJxMS4yNiw0LjEzLDEuMDUsNS43NmE3OS4zMSw3OS4zMSwwLDAsMCw0LjI4LTE3Ljg4Wm0wLDBaIiBjbGFzcz0iY2xzLTEiLz48cGF0aCBkPSJNNzAuODgsNjguMzVhNy41Niw3LjU2LDAsMCwxLTIuNjQsNS45NCwxMC40MiwxMC40MiwwLDAsMS03LjA5LDIuMzFBMTQuMjIsMTQuMjIsMCwwLDEsNTMuMDksNzRsMS4yMi0yLjQ0YTEzLjc2LDEzLjc2LDAsMCwwLDYuMDgsMS42OCw2LjM5LDYuMzksMCwwLDAsNC0xLjEzLDMuOSwzLjksMCwwLDAsMS41NC0zLjE2YzAtMS42OC0xLjE3LTMuMTItMy4zMy00LjMzLTItMS4xLTYtMy4zOC02LTMuMzhhNi43OSw2Ljc5LDAsMCwxLTMuMjQtNiw3LjA5LDcuMDksMCwwLDEsMi40Mi01LjU4LDkuMDYsOS4wNiwwLDAsMSw2LjIzLTIuMTMsMTIuODcsMTIuODcsMCwwLDEsNy4xNywyLjExTDY4LjE1LDUyYTEzLjc0LDEzLjc0LDAsMCwwLTUuNDUtMS4xOCw0Ljg3LDQuODcsMCwwLDAtMy4zNiwxLDMuNTUsMy41NSwwLDAsMC0xLjI3LDIuN2MwLDEuNjgsMS4yLDMuMTQsMy40MSw0LjM3LDIsMS4wOSw2LjA4LDMuNDIsNi4wOCwzLjQyLDIuMjIsMS41NywzLjMyLDMuMjUsMy4zMiw2Wm0wLDBaIiBjbGFzcz0iY2xzLTIiLz48cGF0aCBkPSJNNzkuMzUsNzAuNTRjLTEuMTQtMS44NS0xLjcyLTQuODItMS43Mi04LjkxcTAtMTAuNzQsNi41MS0xMC43M2E1LjQ1LDUuNDUsMCwwLDEsNSwyLjU2cTEuNzMsMi43NywxLjcyLDguODQsMCwxMC44Mi02LjUsMTAuODFhNS40Nyw1LjQ3LDAsMCwxLTUtMi41NlptMTYuODcsNi4zN0w5MSw3NC4zNGE5LjcyLDkuNzIsMCwwLDAsMS4zLTEuMjdxMy4zMi0zLjkxLDMuMzItMTEuNTcsMC0xNC4xLTExLTE0LjFBMTAuNDQsMTAuNDQsMCwwLDAsNzYuMTYsNTFxLTMuMzEsMy45Mi0zLjMxLDExLjUzdDIuOTQsMTFjMS43OCwyLjEsNC40OCwzLjE2LDguMDksMy4xNmExMy4xNiwxMy4xNiwwLDAsMCwzLjcxLS41bDYuNzgsMy45NSwxLjg1LTMuMTlabTAsMFoiIGNsYXNzPSJjbHMtMyIvPjxwb2x5Z29uIHBvaW50cz0iMTEzLjIyIDc2LjIzIDk5Ljc1IDc2LjIzIDk5Ljc1IDQ3LjgyIDEwNC4yOCA0Ny44MiAxMDQuMjggNzIuNzMgMTEzLjIyIDcyLjczIDExMy4yMiA3Ni4yMyAxMTMuMjIgNzYuMjMiIGNsYXNzPSJjbHMtMiIvPjxwYXRoIGQ9Ik0xMTYuNDUsNzYuMjJoLjc1VjczLjMzaDF2LS41OWgtMi43NnYuNTloMXYyLjg5Wm01LjcyLDBoLjcxVjcyLjc0aC0xLjA3bC0uODcsMi4zOEwxMjAsNzIuNzRoLTF2My40OGguNjdWNzMuNThoMGwxLDIuNjRoLjUxbDEtMi42NHYyLjY0Wm0wLDBaIiBjbGFzcz0iY2xzLTIiLz48cGF0aCBkPSJNMTE4LjkxLDM4LjMxYTE1Ljg2LDE1Ljg2LDAsMCwwLTYuNjQsMWMtLjUxLjIxLTEuMzMuMjEtMS40Ljg2LjI3LjI3LjMuNzIuNTUsMS4xYTcuODcsNy44NywwLDAsMCwxLjc3LDIuMDljLjcyLjU1LDEuNDQsMS4xLDIuMiwxLjU4LDEuMzMuODIsMi44NCwxLjMsNC4xMywyLjEzLjc2LjQ4LDEuNTEsMS4wOSwyLjI3LDEuNjEuMzcuMjcuNjEuNzIsMS4wOS44OXYtLjFjLS4yNC0uMzEtLjMxLS43Ni0uNTUtMS4xbC0xLTFhMTYuNDksMTYuNDksMCwwLDAtMy41Ni0zLjQ3Yy0xLjEtLjc2LTMuNS0xLjc5LTMuOTQtM2wtLjA3LS4wN2ExMy41MSwxMy41MSwwLDAsMCwyLjM2LS41NmMxLjE3LS4zLDIuMjMtLjIzLDMuNDItLjU0LjU1LS4xNCwxLjEtLjMxLDEuNjUtLjQ4di0uMzFjLS42Mi0uNjItMS4wNi0xLjQ0LTEuNzEtMmE0Ni45LDQ2LjksMCwwLDAtNS42NS00LjIyYy0xLjA2LS42OC0yLjQzLTEuMTMtMy41Ni0xLjcxLS40MS0uMjEtMS4wOS0uMzEtMS4zMy0uNjZhMTMuODcsMTMuODcsMCwwLDEtMS40MS0yLjY0Yy0xLTEuODgtMi00LTIuOC02QTM3LjQyLDM3LjQyLDAsMCwwLDEwMywxNy43MiwzNC41NiwzNC41NiwwLDAsMCw4OS43MSw0Ljg4YTE2LjA4LDE2LjA4LDAsMCwwLTQuMzgtMS40Yy0uODUsMC0xLjcxLS4xMS0yLjU2LS4xNGExMy40LDEzLjQsMCwwLDEtMS41OC0xLjJjLTItMS4yNC03LTMuOTEtOC40Mi0uMzhDNzEuODUsNCw3NC4xNCw2LjE5LDc0LjkzLDcuMzJhMTYuMzUsMTYuMzUsMCwwLDEsMS43NCwyLjU3Yy4yNC41OS4zMSwxLjIxLjU1LDEuODJBNDEuNyw0MS43LDAsMCwwLDc5LDE2LjMxYTE2Ljg2LDE2Ljg2LDAsMCwwLDEuMjcsMi4xM2MuMjcuMzguNzUuNTUuODUsMS4xN2E5LjksOS45LDAsMCwwLS43OCwyLjU3Yy0xLjI0LDMuODgtLjc2LDguNjgsMSwxMS41My41NC44NiwxLjg1LDIuNzUsMy41OSwyLDEuNTQtLjYxLDEuMi0yLjU3LDEuNjUtNC4yOC4xLS40MiwwLS42OS4yMy0xdi4wNmMuNDgsMSwxLDEuODksMS40MSwyLjg1QTE5LjY1LDE5LjY1LDAsMCwwLDkyLjY2LDM4Yy44Mi42MiwxLjQ3LDEuNjgsMi41LDIuMDZWNDBoLS4wN2E0LDQsMCwwLDAtLjc5LS42OSwxNi4zMSwxNi4zMSwwLDAsMS0xLjc4LTIuMDZBNDMuMjQsNDMuMjQsMCwwLDEsODguNjksMzFjLS41NS0xLjA3LTEtMi4yNC0xLjQ3LTMuMy0uMjEtLjQxLS4yMS0xLS41NS0xLjIzQTEyLDEyLDAsMCwwLDg1LDI4Ljc3YTE5LDE5LDAsMCwwLTEsNS4xOGMtLjE0LDAtLjA3LDAtLjE0LjA3LTEuMDktLjI4LTEuNDctMS40MS0xLjg4LTIuMzdhMTQuODUsMTQuODUsMCwwLDEtLjMxLTkuMTZjLjI0LS43MiwxLjI3LTMsLjg1LTMuNjctLjItLjY2LS44OS0xLTEuMjYtMS41NWExMi43NywxMi43NywwLDAsMS0xLjIzLTIuMTljLS44Mi0xLjkzLTEuMjQtNC4wNS0yLjEyLTZhMTkuMjQsMTkuMjQsMCwwLDAtMS43Mi0yLjY0LDE2Ljc4LDE2Ljc4LDAsMCwxLTEuODgtMi42N2MtLjE3LS4zOC0uNDEtMS0uMTQtMS40MWEuNTUuNTUsMCwwLDEsLjQ4LS40NWMuNDUtLjM4LDEuNzEuMSwyLjE2LjMxQTE3LjExLDE3LjExLDAsMCwxLDgwLjI3LDRjLjQ4LjM0LDEsMSwxLjYsMS4xNmguNzJjMS4xLjI0LDIuMzMuMDcsMy4zNi4zOGEyMS42MywyMS42MywwLDAsMSw0LjkzLDIuMzcsMzAuMzcsMzAuMzcsMCwwLDEsMTAuNjcsMTEuNzRjLjQyLjc4LjU5LDEuNTEsMSwyLjMzLjcyLDEuNjgsMS42MSwzLjQsMi4zMyw1YTIyLjg1LDIyLjg1LDAsMCwwLDIuNDMsNC42Yy41Mi43MiwyLjU3LDEuMSwzLjQ5LDEuNDhhMjMuOTIsMjMuOTIsMCwwLDEsMi4zNywxYzEuMTYuNzIsMi4zMiwxLjU0LDMuNDIsMi4zMy41NC40MiwyLjI2LDEuMjcsMi4zNiwyWm0wLDBaIiBjbGFzcz0iY2xzLTQiLz48cGF0aCBkPSJNODQsOC40OGE1LjIsNS4yLDAsMCwwLTEuNDEuMTh2LjA3aC4wN2ExMi41NiwxMi41NiwwLDAsMCwxLjEsMS40Yy4yNy41NS41MSwxLjEuNzgsMS42NWwuMDctLjA3QTEuOTMsMS45MywwLDAsMCw4NS4zMywxMGMtLjItLjI0LS4yNC0uNDgtLjQxLS43MnMtLjY1LS41MS0uOTItLjc5Wm0wLDBaIiBjbGFzcz0iY2xzLTQiLz48L3N2Zz4=;" vertex="1" parent="YeJFbSTwDDyOF9CnA5n1-1">
          <mxGeometry x="120.77" y="266.5" width="83.46" height="57" as="geometry" />
        </mxCell>
        <mxCell id="8HqUlB-A6iutkIkSqe2s-1" value="" style="shape=image;verticalLabelPosition=bottom;labelBackgroundColor=#EA6B66;verticalAlign=top;aspect=fixed;imageAspect=0;image=data:image/png,iVBORw0KGgoAAAANSUhEUgAAACAAAAAgCAMAAABEpIrGAAAABGdBTUEAALGPC/xhBQAAAAFzUkdCAK7OHOkAAAAgY0hSTQAAeiYAAICEAAD6AAAAgOgAAHUwAADqYAAAOpgAABdwnLpRPAAAAcVQTFRFAAAAAAAAAAAAAAAAAAAAAAAAAAAAAAAAAAAAAAAAAAAAAAAAAAAAAAAAAAAAAAAAAAAAAAAAAAAAAAAAAAAAAAAAAAAAAAAAAAAAAAAAAAAAAAAAAAAAAAAAAAAAAAAAAAAAAAAAAAAAAAAAAAAAAAAAAAAAAAAAAAAAAAAAAAAAAAAAAAAAAAAAAAAAAAAAAAAAAAAAAAAAAAAAAAAAAAAAAAAAAAAAAAAAAAAAAAAAAAAAAAAAAAAAAAAAAAAAAAAAAAAAAAAAAAAAAAAAAAAAAAAAAAAAAAAAAAAAAAAAAAAAAAAAAAAAAAAAAAAAAAAAAAAAAAAAAAAAAAAAAAAAAAAAAAAAAAAAAAAAAAAAAAAAAAAAAAAAAAAAAAAAAAAAAAAAAAAAAAAAAAAAAAAAAAAAAAAAAAAAAAAAAAAAAAAAAAAAAAAAAAAAAAAAAAAAAAAAAAAAAAAAAAAAAAAAAAAAAAAAAAAAAAAAAAAAAAAAAAAAAAAAAAAAAAAAAAAAAAAAAAAAAAAAAAAAAAAAAAAAAAAAAAAAAAAAAAAAAAAAAAAAAAAAAAAAAAAAAAAAAAAAAAAAAAAAAAAAAAAA////6RYbggAAAJZ0Uk5TABZIEwlYq6dPBwI6nj5CopozAQiAvAoMXb94BSVrKh/Otg5gwsYUEm6tjnMVIqQ3jKNHC0qIQ6lQqCckrFQERpwDG5C9PA0ptRrBuYIhgckgEa5qHmV3Jo2SLCNx1XQQbK8dqkSLURlLoUGg0L5fK8zzY7B5D2aEt8UwBpEuxzKYYXuGh0XKTI91FxiFWX85mZ1WNeZOgwRAqQAAAAFiS0dElpFpKzkAAAAJcEhZcwABOvYAATr2ATqxVzoAAAG/SURBVDjLY2CgFmBkYsYnzcLKxsbOwYlLmoubh4eXk49fQFAIq7ywiCirGJAWl5CUkoaKycjKIRTIKyhKiANpJWUVVTWwiLqGppamtg5Mga6evoGhkbGJnqmZOSOQz2lhaWrFYG1qYysMUyBuZ2+o6MDn6ARSIOzswssFFBZyVRFwgylgYHD38GRgACvQ8fL28QXZ7OfhH4BQEGAeCFXAaCmoHRQcEhoUFm6oi1WBuRODe4R/ZBSDuB5OBQxqQdEMeBUEmgfgUhAYExsXCFYQn5DIiK7AMokj2SAllS0t3dIqw9xZjgFdgSRbppk0g11Wtl5OkKG9NAOaghDT3DxI0OQXFCYoMTCgKLCULyouSQcLlJYFlVfIM6AqkK8Mcq4Cx3a1CXtNrbp5AJoCN/a6ehBHqL7B0Ega4k0UBQylyjZSngwhIjaNIMtRFPjaQLwb0pTcbFPiBGY7FSO5wbjFsNUOzOJrcwXTdvbszWJIaY6znb0DHCZOlmCz8p3ZM6pRk2VgqGZnFzQuuqVsQgMxU65uj2avMFCBmIRNXwADNsDVP2Eiq+Yk/gmTuXBlD5a0oCmaU4UZ8AAdIzUG6gMA2pVgKKcl09QAAAAldEVYdGRhdGU6Y3JlYXRlADIwMjAtMDMtMTdUMDg6MDM6MzErMDA6MDBMWbdUAAAAJXRFWHRkYXRlOm1vZGlmeQAyMDIwLTAzLTE3VDA4OjAzOjMxKzAwOjAwPQQP6AAAAEZ0RVh0c29mdHdhcmUASW1hZ2VNYWdpY2sgNi43LjgtOSAyMDE5LTAyLTAxIFExNiBodHRwOi8vd3d3LmltYWdlbWFnaWNrLm9yZ0F74sgAAAAYdEVYdFRodW1iOjpEb2N1bWVudDo6UGFnZXMAMaf/uy8AAAAYdEVYdFRodW1iOjpJbWFnZTo6aGVpZ2h0ADUxMsDQUFEAAAAXdEVYdFRodW1iOjpJbWFnZTo6V2lkdGgANTEyHHwD3AAAABl0RVh0VGh1bWI6Ok1pbWV0eXBlAGltYWdlL3BuZz+yVk4AAAAXdEVYdFRodW1iOjpNVGltZQAxNTg0NDMyMjExB4hZ9AAAABN0RVh0VGh1bWI6OlNpemUAMTMuOUtCQmnx950AAABDdEVYdFRodW1iOjpVUkkAZmlsZTovLy4vdXBsb2Fkcy81Ni9jUm1pd09OLzIyNDgvbGFyYXZlbF9pY29uXzEzNTQ1MS5wbmdfjP0GAAAAAElFTkSuQmCC;" vertex="1" parent="1">
          <mxGeometry x="200" y="190" width="32" height="32" as="geometry" />
        </mxCell>
        <mxCell id="8HqUlB-A6iutkIkSqe2s-10" value="VPC" style="points=[[0,0],[0.25,0],[0.5,0],[0.75,0],[1,0],[1,0.25],[1,0.5],[1,0.75],[1,1],[0.75,1],[0.5,1],[0.25,1],[0,1],[0,0.75],[0,0.5],[0,0.25]];outlineConnect=0;gradientColor=none;html=1;whiteSpace=wrap;fontSize=12;fontStyle=0;container=1;pointerEvents=0;collapsible=0;recursiveResize=0;shape=mxgraph.aws4.group;grIcon=mxgraph.aws4.group_vpc2;strokeColor=#8C4FFF;fillColor=none;verticalAlign=top;align=left;spacingLeft=30;fontColor=#AAB7B8;dashed=0;" vertex="1" parent="1">
          <mxGeometry x="350" y="570" width="400" height="480" as="geometry" />
        </mxCell>
        <mxCell id="8HqUlB-A6iutkIkSqe2s-11" value="" style="sketch=0;outlineConnect=0;fontColor=#232F3E;gradientColor=none;fillColor=#232F3D;strokeColor=none;dashed=0;verticalLabelPosition=bottom;verticalAlign=top;align=center;html=1;fontSize=12;fontStyle=0;aspect=fixed;pointerEvents=1;shape=mxgraph.aws4.user;" vertex="1" parent="1">
          <mxGeometry x="110" y="210" width="78" height="78" as="geometry" />
        </mxCell>
        <mxCell id="8HqUlB-A6iutkIkSqe2s-13" value="" style="shape=image;verticalLabelPosition=bottom;labelBackgroundColor=default;verticalAlign=top;aspect=fixed;imageAspect=0;image=data:image/svg+xml,PHN2ZyB4bWxucz0iaHR0cDovL3d3dy53My5vcmcvMjAwMC9zdmciIGZpbGw9Im5vbmUiIHZpZXdCb3g9IjAgMCAxMDI0IDYzMiIgaGVpZ2h0PSI2MzIiIHdpZHRoPSIxMDI0Ij4mI3hhOzxyZWN0IGZpbGw9ImJsYWNrIiBoZWlnaHQ9IjYzMiIgd2lkdGg9IjEwMjQiLz4mI3hhOzxnIGNsaXAtcGF0aD0idXJsKCNjbGlwMF8yN182KSI+JiN4YTs8cGF0aCBmaWxsPSJ3aGl0ZSIgZD0iTTYzNC4wODMgMjQ5LjA1NUg3NDguODY5VjI3MC4yNzJINzAzLjMzNVYzODEuODkzSDY4MC41NjZWMjcwLjI3Mkg2MzQuMDgzVjI0OS4wNTVaIi8+JiN4YTs8cGF0aCBmaWxsPSJ3aGl0ZSIgZD0iTTQ0NS4zMDMgMjQ5LjA1NVYyNzAuMjcySDM1My4yOTRWMzA0LjQwNEg0MjcuMjg3VjMyNS42MjFIMzUzLjI5NFYzNjAuNjc2SDQ0NS4zMDNWMzgxLjg5M0gzMzAuNTI2VjI3MC4yNzJIMzMwLjUxN1YyNDkuMDU1SDQ0NS4zMDNaIi8+JiN4YTs8cGF0aCBmaWxsPSJ3aGl0ZSIgZD0iTTUwMi42MTkgMjQ5LjExMUg0NzIuODIzTDU3OS41NDUgMzgxLjk0OEg2MDkuNDI3TDU1Ni4wNiAzMTUuNTc1TDYwOS4zNDIgMjQ5LjIxMkw1NzkuNTQ1IDI0OS4yNThMNTQxLjE0MiAyOTcuMDIyTDUwMi42MTkgMjQ5LjExMVoiLz4mI3hhOzxwYXRoIGZpbGw9IndoaXRlIiBkPSJNNTMzLjE5NCAzNDMuOTk3TDUxOC4yNzMgMzI1LjQxOEw0NzIuNzM4IDM4Mi4wNUg1MDIuNjE5TDUzMy4xOTQgMzQzLjk5N1oiLz4mI3hhOzxwYXRoIGZpbGw9IndoaXRlIiBkPSJNMzMxLjMyNCAzODEuODkzTDIyNC40NTkgMjQ5SDE5NlYzODEuODM3SDIxOC43NjdWMjc3LjM5NEwzMDIuNzIyIDM4MS44OTNIMzMxLjMyNFoiIGNsaXAtcnVsZT0iZXZlbm9kZCIgZmlsbC1ydWxlPSJldmVub2RkIi8+JiN4YTs8cGF0aCBmaWxsPSJ3aGl0ZSIgZD0iTTc1My45ODcgMzgxLjA4MUM3NTIuMzIgMzgxLjA4MSA3NTAuOTAxIDM4MC41MDMgNzQ5LjcxNCAzNzkuMzQ2Qzc0OC41MjYgMzc4LjE4OSA3NDcuOTM5IDM3Ni43ODkgNzQ3Ljk1NCAzNzUuMTI5Qzc0Ny45MzkgMzczLjUxNiA3NDguNTI2IDM3Mi4xMyA3NDkuNzE0IDM3MC45NzNDNzUwLjkwMSAzNjkuODE2IDc1Mi4zMiAzNjkuMjM4IDc1My45ODcgMzY5LjIzOEM3NTUuNTkxIDM2OS4yMzggNzU2Ljk5NSAzNjkuODE2IDc1OC4xODIgMzcwLjk3M0M3NTkuMzg3IDM3Mi4xMyA3NTkuOTg3IDM3My41MTYgNzYwLjAwNCAzNzUuMTI5Qzc1OS45ODcgMzc2LjIyNSA3NTkuNzA5IDM3Ny4yMyA3NTkuMTU0IDM3OC4xMjhDNzU4LjU4NCAzNzkuMDQyIDc1Ny44NTkgMzc5Ljc1NyA3NTYuOTQ4IDM4MC4yNzVDNzU2LjA1MyAzODAuODA4IDc1NS4wNjYgMzgxLjA4MSA3NTMuOTg3IDM4MS4wODFaIi8+JiN4YTs8cGF0aCBmaWxsPSJ3aGl0ZSIgZD0iTTc5Mi44NDcgMzI1LjEyMUg4MDIuOTM2VjM2NC4wNDdDODAyLjkyMSAzNjcuNjI0IDgwMi4xNDggMzcwLjY4NCA4MDAuNjM3IDM3My4yNTdDNzk5LjExIDM3NS44MjkgNzk2Ljk5NiAzNzcuNzkzIDc5NC4yODIgMzc5LjE3OEM3OTEuNTgyIDM4MC41NDggNzg4LjQxOSAzODEuMjQ5IDc4NC44MjUgMzgxLjI0OUM3ODEuNTM4IDM4MS4yNDkgNzc4LjU5MyAzODAuNjU1IDc3NS45NyAzNzkuNDk4Qzc3My4zNDggMzc4LjM0MSA3NzEuMjY1IDM3Ni42MDYgNzY5LjczOCAzNzQuMzIyQzc2OC4xOTQgMzcyLjAzOSA3NjcuNDM4IDM2OS4xOTIgNzY3LjQzOCAzNjUuNzgySDc3Ny41NDRDNzc3LjU1OSAzNjcuMjc0IDc3Ny44OTkgMzY4LjU2OCA3NzguNTQ2IDM2OS42NDlDNzc5LjE5MyAzNzAuNzMgNzgwLjA4OCAzNzEuNTUyIDc4MS4yMyAzNzIuMTNDNzgyLjM4NiAzNzIuNzA5IDc4My43MTQgMzcyLjk5OCA3ODUuMjA5IDM3Mi45OThDNzg2LjgzIDM3Mi45OTggNzg4LjIxOSAzNzIuNjYzIDc4OS4zNDQgMzcxLjk3OEM3OTAuNDcgMzcxLjMwOCA3OTEuMzM1IDM3MC4zMDMgNzkxLjkzNyAzNjguOTY0Qzc5Mi41MjIgMzY3LjYzOSA3OTIuODMxIDM2NS45OTUgNzkyLjg0NyAzNjQuMDQ3VjMyNS4xMjFaIi8+JiN4YTs8cGF0aCBmaWxsPSJ3aGl0ZSIgZD0iTTg0NC40NDggMzQwLjM0NEM4NDQuMjAyIDMzNy45ODUgODQzLjEyMSAzMzYuMTQzIDg0MS4yNCAzMzQuODMzQzgzOS4zNDEgMzMzLjUwOSA4MzYuODg5IDMzMi44NTQgODMzLjg4IDMzMi44NTRDODMxLjc2OCAzMzIuODU0IDgyOS45NDggMzMzLjE3NCA4MjguNDM2IDMzMy43OThDODI2LjkyNCAzMzQuNDM4IDgyNS43NTEgMzM1LjI5IDgyNC45NDkgMzM2LjM3MUM4MjQuMTQ3IDMzNy40NTIgODIzLjc0NiAzMzguNjg1IDgyMy43MTQgMzQwLjA3QzgyMy43MTQgMzQxLjIyNyA4MjMuOTkyIDM0Mi4yMzIgODI0LjUzMiAzNDMuMDY5QzgyNS4wNzIgMzQzLjkyMiA4MjUuNzk3IDM0NC42MzcgODI2LjczOCAzNDUuMjE2QzgyNy42NjMgMzQ1LjgwOSA4MjguNjk3IDM0Ni4yOTYgODI5LjgyNCAzNDYuNjkyQzgzMC45NjUgMzQ3LjA4OCA4MzIuMTA3IDM0Ny40MjMgODMzLjI0OCAzNDcuNjk3TDgzOC41MDggMzQ4Ljk5MUM4NDAuNjIyIDM0OS40NzggODQyLjY3NSAzNTAuMTMzIDg0NC42MzMgMzUwLjk3Qzg0Ni41OTIgMzUxLjc5MiA4NDguMzY3IDM1Mi44NDIgODQ5LjkyNCAzNTQuMTA2Qzg1MS40ODMgMzU1LjM3IDg1Mi43MTcgMzU2Ljg5MiA4NTMuNjI3IDM1OC42NzNDODU0LjUzNyAzNjAuNDU0IDg1NSAzNjIuNTQgODU1IDM2NC45NDVDODU1IDM2OC4xODcgODU0LjE2NyAzNzEuMDM0IDg1Mi40ODQgMzczLjVDODUwLjgwMyAzNzUuOTUxIDg0OC4zODIgMzc3Ljg2OSA4NDUuMjA0IDM3OS4yNTVDODQyLjA0MSAzODAuNjI1IDgzOC4yMTYgMzgxLjMyNSA4MzMuNzExIDM4MS4zMjVDODI5LjM2MSAzODEuMzI1IDgyNS41NjYgMzgwLjY1NSA4MjIuMzczIDM3OS4zMTZDODE5LjE2NSAzNzcuOTkxIDgxNi42NjQgMzc2LjA0MyA4MTQuODYgMzczLjQ4NUM4MTMuMDU1IDM3MC45MjggODEyLjA4MyAzNjcuODA3IDgxMS45NDQgMzY0LjEzOEg4MjEuOTQxQzgyMi4wOCAzNjYuMDU2IDgyMi42OTcgMzY3LjY1NSA4MjMuNzQ2IDM2OC45NDlDODI0LjgxIDM3MC4yMjcgODI2LjE5OCAzNzEuMTcxIDgyNy44OTYgMzcxLjgxQzgyOS42MDggMzcyLjQzNSA4MzEuNTIgMzcyLjc1NCA4MzMuNjM0IDM3Mi43NTRDODM1Ljg0MSAzNzIuNzU0IDgzNy43ODQgMzcyLjQxOSA4MzkuNDY1IDM3MS43NjVDODQxLjEzMSAzNzEuMTEgODQyLjQ0MiAzNzAuMTk3IDg0My4zODQgMzY5LjAxQzg0NC4zNDEgMzY3LjgzNyA4NDQuODE5IDM2Ni40NTIgODQ0LjgzNCAzNjQuODY5Qzg0NC44MTkgMzYzLjQyMyA4NDQuMzg2IDM2Mi4yMiA4NDMuNTUzIDM2MS4yNzZDODQyLjcwNSAzNjAuMzMyIDg0MS41MzIgMzU5LjU0MSA4NDAuMDM1IDM1OC45MDFDODM4LjUyNSAzNTguMjYyIDgzNi43NjUgMzU3LjY4MyA4MzQuNzYgMzU3LjE4MUw4MjguMzc0IDM1NS41NjdDODIzLjc2MSAzNTQuMzk1IDgyMC4xMDUgMzUyLjYxNCA4MTcuNDM1IDM1MC4yMjRDODE0Ljc1MiAzNDcuODM0IDgxMy40MjQgMzQ0LjY2OCA4MTMuNDI0IDM0MC42OTRDODEzLjQyNCAzMzcuNDM3IDgxNC4zMTkgMzM0LjU3NSA4MTYuMTI2IDMzMi4xMjRDODE3LjkxNCAzMjkuNjczIDgyMC4zNjcgMzI3Ljc3IDgyMy40NjggMzI2LjQxNUM4MjYuNTg0IDMyNS4wNDUgODMwLjEwMiAzMjQuMzc1IDgzNC4wMTkgMzI0LjM3NUM4MzggMzI0LjM3NSA4NDEuNDg1IDMyNS4wNDUgODQ0LjQ5NCAzMjYuNDE1Qzg0Ny41MDIgMzI3Ljc3IDg0OS44NjMgMzI5LjY1OCA4NTEuNTc1IDMzMi4wNjNDODUzLjI4NyAzMzQuNDY4IDg1NC4xODIgMzM3LjIyMyA4NTQuMjI5IDM0MC4zNDRIODQ0LjQ0OFoiLz4mI3hhOzwvZz4mI3hhOzxkZWZzPiYjeGE7PGNsaXBQYXRoIGlkPSJjbGlwMF8yN182Ij4mI3hhOzxyZWN0IHRyYW5zZm9ybT0idHJhbnNsYXRlKDE5NiAyNDkpIiBmaWxsPSJ3aGl0ZSIgaGVpZ2h0PSIxMzQiIHdpZHRoPSI2NTkiLz4mI3hhOzwvY2xpcFBhdGg+JiN4YTs8L2RlZnM+JiN4YTs8L3N2Zz4=;imageBackground=none;clipPath=inset(31.62% 14.67% 33.78% 15%);" vertex="1" parent="1">
          <mxGeometry x="510" y="210" width="132.86" height="40.29876777251185" as="geometry" />
        </mxCell>
        <mxCell id="8HqUlB-A6iutkIkSqe2s-14" value="" style="shape=image;verticalLabelPosition=bottom;labelBackgroundColor=none;verticalAlign=top;aspect=fixed;imageAspect=0;image=data:image/svg+xml,PHN2ZyB4bWxucz0iaHR0cDovL3d3dy53My5vcmcvMjAwMC9zdmciIGZpbGw9Im5vbmUiIHZpZXdCb3g9IjAgMCAyMjQgMjI0IiBoZWlnaHQ9IjIyNCIgd2lkdGg9IjIyNCI+PHJlY3QgZmlsbD0iYmxhY2siIGhlaWdodD0iMjI0IiB3aWR0aD0iMjI0Ii8+PGcgY2xpcC1wYXRoPSJ1cmwoI2NsaXAwXzMwNDlfMjAyMzApIj48cGF0aCBmaWxsPSJ3aGl0ZSIgZD0iTTExMS44MTggMTA1LjVDMTA3LjMzMyAxMDUuNSAxMDQuMDk5IDEwOC40MjUgMTA0LjA5OSAxMTIuODEyQzEwNC4wOTkgMTE3LjIgMTA3LjczNSAxMjAuMTI1IDExMi4yMjQgMTIwLjEyNUMxMTQuOTMzIDEyMC4xMjUgMTE3LjMyMiAxMTkuMDUyIDExOC44MDEgMTE3LjI0NUwxMTUuNjkzIDExNS40NDlDMTE0Ljg3MyAxMTYuMzQ3IDExMy42MjUgMTE2Ljg3MSAxMTIuMjI0IDExNi44NzFDMTEwLjI3OCAxMTYuODcxIDEwOC42MjQgMTE1Ljg1NSAxMDguMDExIDExNC4yM0gxMTkuMzk0QzExOS40ODMgMTEzLjc3NSAxMTkuNTM2IDExMy4zMDQgMTE5LjUzNiAxMTIuODA4QzExOS41MzYgMTA4LjQyNSAxMTYuMzA3IDEwNS41IDExMS44MTggMTA1LjVaTTEwNy45NzggMTExLjM5MUMxMDguNDg2IDEwOS43NyAxMDkuODc2IDEwOC43NSAxMTEuODE4IDEwOC43NUMxMTMuNzYzIDEwOC43NSAxMTUuMTUzIDEwOS43NyAxMTUuNjU3IDExMS4zOTFIMTA3Ljk3OFpNMTA3LjA2IDEwMS4wMzFMOTUuODAzMSAxMjAuNTMxTDg0LjU0MTkgMTAxLjAzMUg4OC43NjI4TDk1Ljc5OTIgMTEzLjIxOUwxMDIuODM1IDEwMS4wMzFIMTA3LjA2Wk02OS4wMTA5IDk5TDg0LjAyMTkgMTI1SDU0TDY5LjAxMDkgOTlaTTEzNS44NjggMTEyLjgxMkMxMzUuODY4IDExNS4yNSAxMzcuNDYgMTE2Ljg3NSAxMzkuOTMgMTE2Ljg3NUMxNDEuNjA0IDExNi44NzUgMTQyLjg1OSAxMTYuMTE1IDE0My41MDUgMTE0Ljg3NkwxNDYuNjI1IDExNi42NzZDMTQ1LjMzMyAxMTguODI5IDE0Mi45MTIgMTIwLjEyNSAxMzkuOTMgMTIwLjEyNUMxMzUuNDQxIDEyMC4xMjUgMTMyLjIxMSAxMTcuMiAxMzIuMjExIDExMi44MTJDMTMyLjIxMSAxMDguNDI1IDEzNS40NDUgMTA1LjUgMTM5LjkzIDEwNS41QzE0Mi45MTIgMTA1LjUgMTQ1LjMyOSAxMDYuNzk2IDE0Ni42MjUgMTA4Ljk0OUwxNDMuNTA1IDExMC43NDlDMTQyLjg1OSAxMDkuNTEgMTQxLjYwNCAxMDguNzUgMTM5LjkzIDEwOC43NUMxMzcuNDY0IDEwOC43NSAxMzUuODY4IDExMC4zNzUgMTM1Ljg2OCAxMTIuODEyWk0xNjkuMzc1IDEwMS4wMzFWMTE5LjcxOUgxNjUuNzE5VjEwMS4wMzFIMTY5LjM3NVpNMTU1LjU2MyAxMDUuNUMxNTEuMDc4IDEwNS41IDE0Ny44NDQgMTA4LjQyNSAxNDcuODQ0IDExMi44MTJDMTQ3Ljg0NCAxMTcuMiAxNTEuNDg0IDEyMC4xMjUgMTU1Ljk2OSAxMjAuMTI1QzE1OC42NzggMTIwLjEyNSAxNjEuMDY3IDExOS4wNTIgMTYyLjU0NiAxMTcuMjQ1TDE1OS40MzggMTE1LjQ0OUMxNTguNjE4IDExNi4zNDcgMTU3LjM3IDExNi44NzEgMTU1Ljk2OSAxMTYuODcxQzE1NC4wMjMgMTE2Ljg3MSAxNTIuMzY5IDExNS44NTUgMTUxLjc1NiAxMTQuMjNIMTYzLjEzOUMxNjMuMjI4IDExMy43NzUgMTYzLjI4MSAxMTMuMzA0IDE2My4yODEgMTEyLjgwOEMxNjMuMjgxIDEwOC40MjUgMTYwLjA1MiAxMDUuNSAxNTUuNTYzIDEwNS41Wk0xNTEuNzIzIDExMS4zOTFDMTUyLjIzMSAxMDkuNzcgMTUzLjYxNyAxMDguNzUgMTU1LjU2MyAxMDguNzVDMTU3LjUwOCAxMDguNzUgMTU4Ljg5OCAxMDkuNzcgMTU5LjQwMiAxMTEuMzkxSDE1MS43MjNaTTEzMC45OTMgMTA1LjkwNlYxMDkuODQzQzEzMC41ODYgMTA5LjcyNSAxMzAuMTU2IDEwOS42NDQgMTI5LjY5MyAxMDkuNjQ0QzEyNy4zMzIgMTA5LjY0NCAxMjUuNjMgMTExLjI2OSAxMjUuNjMgMTEzLjcwNlYxMTkuNzE5SDEyMS45NzRWMTA1LjkwNkgxMjUuNjNWMTA5LjY0NEMxMjUuNjMgMTA3LjU4IDEyOC4wMzEgMTA1LjkwNiAxMzAuOTkzIDEwNS45MDZaIi8+PC9nPjxkZWZzPjxjbGlwUGF0aCBpZD0iY2xpcDBfMzA0OV8yMDIzMCI+PHJlY3QgdHJhbnNmb3JtPSJ0cmFuc2xhdGUoNTQgOTkpIiBmaWxsPSJ3aGl0ZSIgaGVpZ2h0PSIyNiIgd2lkdGg9IjExNS4zODgiLz48L2NsaXBQYXRoPjwvZGVmcz48L3N2Zz4=;imageBackground=none;fontColor=none;noLabel=1;clipPath=inset(41.52% 17.41% 40.63% 19.2%);" vertex="1" parent="1">
          <mxGeometry x="516" y="270" width="194" height="54.647887323943664" as="geometry" />
        </mxCell>
        <mxCell id="8HqUlB-A6iutkIkSqe2s-15" value="" style="dashed=0;outlineConnect=0;html=1;align=center;labelPosition=center;verticalLabelPosition=bottom;verticalAlign=top;shape=mxgraph.weblogos.github" vertex="1" parent="1">
          <mxGeometry x="43" y="490" width="75" height="75" as="geometry" />
        </mxCell>
        <mxCell id="8HqUlB-A6iutkIkSqe2s-18" value="" style="shape=image;verticalLabelPosition=bottom;labelBackgroundColor=default;verticalAlign=top;aspect=fixed;imageAspect=0;image=data:image/svg+xml,PHN2ZyB4bWxuczp4bGluaz0iaHR0cDovL3d3dy53My5vcmcvMTk5OS94bGluayIgeG1sbnM9Imh0dHA6Ly93d3cudzMub3JnLzIwMDAvc3ZnIiB4bWw6c3BhY2U9InByZXNlcnZlIiB2aWV3Qm94PSIwIDAgMjU2IDI0OSIgaGVpZ2h0PSI4MDBweCIgd2lkdGg9IjgwMHB4IiBpZD0iTGF5ZXJfMSIgdmVyc2lvbj0iMS4xIiBmaWxsPSIjZmZmIj4mI3hhOzxwYXRoIGQ9Ik00Ny41MjIsMTcwLjI4N2wxMS4xNzIsNzYuNjgxaDEzOC42MTJsMTEuMTcyLTc2LjY4MUg0Ny41MjJ6IE0xMjgsMjE1LjI0OWMtNS43NDgsMC0xMC40MDctMy4wNjMtMTAuNDA3LTYuODQmIzEwOyYjOTtzNC42NTktNi44NCwxMC40MDctNi44NGM1Ljc0OCwwLDEwLjQwNywzLjA2MiwxMC40MDcsNi44NFMxMzMuNzQ4LDIxNS4yNDksMTI4LDIxNS4yNDl6IE0yMzMuMzE1LDIzMy4wNTRoLTI2LjAyOGwxMC4yOTItNzAuNjM5JiMxMDsmIzk7SDM4LjQyMWwxMC4yOTIsNzAuNjM5SDIyLjY4NWMtMTQuODQ4LDAtMjQuODUtMTUuMTk1LTE4Ljk3OC0yOC44MzRsMzYuODA5LTg1LjQ4OWM3LjE0OS0xNi42MDUsMjMuNDkzLTI3LjM2Miw0MS41NzEtMjcuMzYyaDE0LjQ4NiYjMTA7JiM5O2wyMi44ODUsMzQuMDYxbDQuNjY1LTIyLjI1NGwtNy44MDktMTEuODA3aDIzLjQ5MWwtNy44MSwxMS44MDdsNC42NTUsMjIuMDk4bDIyLjc4LTMzLjkwNWgxNC40ODYmIzEwOyYjOTtjMTguMDc4LDAsMzQuNDIyLDEwLjc1Nyw0MS41NzEsMjcuMzYybDM2LjgwOCw4NS40ODlDMjU4LjE2NSwyMTcuODU4LDI0OC4xNjQsMjMzLjA1NCwyMzMuMzE1LDIzMy4wNTR6IE0xMjgsMi4wMzMmIzEwOyYjOTtjMjIuNDk2LDAsNDAuNzMzLDE4LjIzNyw0MC43MzMsNDAuNzMzUzE1MC40OTYsODMuNDk4LDEyOCw4My40OThTODcuMjY3LDY1LjI2MSw4Ny4yNjcsNDIuNzY1UzEwNS41MDQsMi4wMzMsMTI4LDIuMDMzeiIvPiYjeGE7PC9zdmc+;" vertex="1" parent="1">
          <mxGeometry x="48" y="600" width="70" height="70" as="geometry" />
        </mxCell>
        <mxCell id="8HqUlB-A6iutkIkSqe2s-20" value="" style="shape=image;verticalLabelPosition=bottom;labelBackgroundColor=default;verticalAlign=top;aspect=fixed;imageAspect=0;image=data:image/svg+xml,PHN2ZyB4bWxucz0iaHR0cDovL3d3dy53My5vcmcvMjAwMC9zdmciIHhtbDpzcGFjZT0icHJlc2VydmUiIHZpZXdCb3g9IjAgMCAyNCAyNCIgaGVpZ2h0PSI4MDBweCIgd2lkdGg9IjgwMHB4IiBmaWxsPSIjMDA3MkFFIj48cGF0aCBkPSJNMjEuODAzIDEwLjI0MmMtLjA1NC0uMDQzLS41NjEtLjQyNS0xLjYyOC0uNDI1YTUuMTUyIDUuMTUyIDAgMCAwLS44NDEuMDcyYy0uMjA3LTEuNDE3LTEuMzc4LTIuMTA3LTEuNDMtMi4xMzhsLS4yODctLjE2NS0uMTg5LjI3MmEzLjg1MSAzLjg1MSAwIDAgMC0uNTEgMS4xOTJjLS4xOTEuODA5LS4wNzUgMS41NjguMzM2IDIuMjE4LS40OTYuMjc2LTEuMjkyLjM0NC0xLjQ1My4zNUgyLjYyNmEuNjI2LjYyNiAwIDAgMC0uNjI1LjYyMyA5LjQ4MyA5LjQ4MyAwIDAgMCAuNTc3IDMuMzg1Yy40NTQgMS4xOSAxLjEyOSAyLjA2NyAyLjAwNyAyLjYwMy45ODQuNjAzIDIuNTg0Ljk0NyA0LjM5Ni45NDcuODE5LjAwMyAxLjYzNi0uMDcyIDIuNDQxLS4yMjFhMTAuMjM1IDEwLjIzNSAwIDAgMCAzLjE4Ni0xLjE1NyA4Ljc1IDguNzUgMCAwIDAgMi4xNzQtMS43OGMxLjA0NC0xLjE4MiAxLjY2Ni0yLjQ5NyAyLjEyOC0zLjY2N2guMTg0YzEuMTQzIDAgMS44NDYtLjQ1NyAyLjIzMy0uODQxLjI1OC0uMjQ0LjQ1OS0uNTQyLjU4OS0uODcybC4wODQtLjI0LS4xOTctLjE1NnoiLz48cGF0aCBkPSJNMy44NDcgMTEuMjMxaDEuNzY1YS4xNTQuMTU0IDAgMCAwIC4xNTQtLjE1NFY5LjUwNWEuMTU0LjE1NCAwIDAgMC0uMTUzLS4xNTVIMy44NDdhLjE1NC4xNTQgMCAwIDAtLjE1NC4xNTRWMTEuMDc4YzAgLjA4NC4wNjkuMTUzLjE1NC4xNTNNNi4yOCAxMS4yMzFoMS43NjVhLjE1NC4xNTQgMCAwIDAgLjE1NC0uMTU0VjkuNTA1YS4xNTMuMTUzIDAgMCAwLS4xNTMtLjE1NUg2LjI4YS4xNTQuMTU0IDAgMCAwLS4xNTUuMTU1djEuNTczYy4wMDEuMDg0LjA3LjE1My4xNTUuMTUzTTguNzUgMTEuMjMxaDEuNzY1YS4xNTQuMTU0IDAgMCAwIC4xNTQtLjE1NFY5LjUwNWEuMTU0LjE1NCAwIDAgMC0uMTUzLS4xNTVIOC43NWEuMTU0LjE1NCAwIDAgMC0uMTU0LjE1NFYxMS4wNzhjMCAuMDg0LjA2OS4xNTMuMTU0LjE1M00xMS4xOSAxMS4yMzFoMS43NjVhLjE1NS4xNTUgMCAwIDAgLjE1NS0uMTU0VjkuNTA1YS4xNTQuMTU0IDAgMCAwLS4xNTUtLjE1NUgxMS4xOWEuMTU0LjE1NCAwIDAgMC0uMTU0LjE1NFYxMS4wNzhjMCAuMDg0LjA2OS4xNTMuMTU0LjE1M002LjI4IDguOTY5aDEuNzY1Yy4wODUgMCAuMTU0LS4wNy4xNTQtLjE1NVY3LjI0MmEuMTU0LjE1NCAwIDAgMC0uMTU0LS4xNTRINi4yOGEuMTU1LjE1NSAwIDAgMC0uMTU1LjE1NHYxLjU3M2MuMDAxLjA4NC4wNy4xNTQuMTU1LjE1NE04Ljc1IDguOTY5aDEuNzY1Yy4wODUgMCAuMTU0LS4wNy4xNTQtLjE1NVY3LjI0MmEuMTU0LjE1NCAwIDAgMC0uMTU0LS4xNTRIOC43NWEuMTU0LjE1NCAwIDAgMC0uMTU0LjE1NHYxLjU3M2MwIC4wODQuMDY5LjE1NC4xNTQuMTU0TTExLjE5IDguOTY5aDEuNzY1Yy4wODUgMCAuMTU1LS4wNy4xNTUtLjE1NVY3LjI0MmEuMTU1LjE1NSAwIDAgMC0uMTU1LS4xNTRIMTEuMTlhLjE1NC4xNTQgMCAwIDAtLjE1NC4xNTR2MS41NzNjMCAuMDg0LjA2OS4xNTQuMTU0LjE1NE0xMS4xOSA2LjcwNmgxLjc2NWEuMTU1LjE1NSAwIDAgMCAuMTU1LS4xNTRWNC45NzhhLjE1NS4xNTUgMCAwIDAtLjE1NS0uMTU0SDExLjE5YS4xNTQuMTU0IDAgMCAwLS4xNTQuMTU0djEuNTczYzAgLjA4Ni4wNjkuMTU1LjE1NC4xNTVNMTMuNjUzIDExLjIzMWgxLjc2NWEuMTU1LjE1NSAwIDAgMCAuMTU1LS4xNTRWOS41MDVhLjE1NC4xNTQgMCAwIDAtLjE1NS0uMTU1aC0xLjc2NWEuMTU0LjE1NCAwIDAgMC0uMTU0LjE1NFYxMS4wNzhhLjE1My4xNTMgMCAwIDAgLjE1NC4xNTMiLz48L3N2Zz4=;" vertex="1" parent="1">
          <mxGeometry x="670" y="390" width="100" height="100" as="geometry" />
        </mxCell>
      </root>
    </mxGraphModel>
  </diagram>
</mxfile>
